# xmcd CD database file
#
# Track frame offsets:
#	150
#	3202
#	17732
#	28157
#	44068
#	56505
#	72057
#	81898
#	96284
#	116408
#	127922
#	144878
#	156806
#	169850
#
# Disc length: 2408 seconds
#
# Revision: 1
# Processed by: cddbd v1.5.1PL0 Copyright (c) Steve Scherf et al.
# Submitted via: CDex 1.51
#
DISCID=ae09660e
DTITLE=Kim Yoon - remember
DYEAR=2005
DGENRE=New Age
TTITLE0=prologue
TTITLE1=misty rain
TTITLE2=winter song
TTITLE3=remember
TTITLE4=nocturne
TTITLE5=solitude
TTITLE6=raindrops
TTITLE7=the letter
TTITLE8=never cry
TTITLE9=griffith
TTITLE10=november
TTITLE11=a firl with smile
TTITLE12=in the silence
TTITLE13=≈‰¡ˆ to ji
EXTD=YEAR: 2005
EXTT0=
EXTT1=
EXTT2=
EXTT3=
EXTT4=
EXTT5=
EXTT6=
EXTT7=
EXTT8=
EXTT9=
EXTT10=
EXTT11=
EXTT12=
EXTT13=
PLAYORDER=
